%TF.GenerationSoftware,KiCad,Pcbnew,10.0.3-2.fc44*%
%TF.CreationDate,2026-06-12T17:50:52+02:00*%
%TF.ProjectId,CC1125_Transceiver,43433131-3235-45f5-9472-616e73636569,rev?*%
%TF.SameCoordinates,Original*%
%TF.FileFunction,Copper,L4,Bot*%
%TF.FilePolarity,Positive*%
%FSLAX46Y46*%
G04 Gerber Fmt 4.6, Leading zero omitted, Abs format (unit mm)*
G04 Created by KiCad (PCBNEW 10.0.3-2.fc44) date 2026-06-12 17:50:52*
%MOMM*%
%LPD*%
G01*
G04 APERTURE LIST*
G04 Aperture macros list*
%AMRoundRect*
0 Rectangle with rounded corners*
0 $1 Rounding radius*
0 $2 $3 $4 $5 $6 $7 $8 $9 X,Y pos of 4 corners*
0 Add a 4 corners polygon primitive as box body*
4,1,4,$2,$3,$4,$5,$6,$7,$8,$9,$2,$3,0*
0 Add four circle primitives for the rounded corners*
1,1,$1+$1,$2,$3*
1,1,$1+$1,$4,$5*
1,1,$1+$1,$6,$7*
1,1,$1+$1,$8,$9*
0 Add four rect primitives between the rounded corners*
20,1,$1+$1,$2,$3,$4,$5,0*
20,1,$1+$1,$4,$5,$6,$7,0*
20,1,$1+$1,$6,$7,$8,$9,0*
20,1,$1+$1,$8,$9,$2,$3,0*%
G04 Aperture macros list end*
%TA.AperFunction,ComponentPad*%
%ADD10C,2.000000*%
%TD*%
%TA.AperFunction,SMDPad,CuDef*%
%ADD11R,5.080000X1.500000*%
%TD*%
%TA.AperFunction,SMDPad,CuDef*%
%ADD12RoundRect,0.250000X-0.337500X-0.475000X0.337500X-0.475000X0.337500X0.475000X-0.337500X0.475000X0*%
%TD*%
%TA.AperFunction,SMDPad,CuDef*%
%ADD13RoundRect,0.237500X0.237500X-0.250000X0.237500X0.250000X-0.237500X0.250000X-0.237500X-0.250000X0*%
%TD*%
%TA.AperFunction,ViaPad*%
%ADD14C,0.600000*%
%TD*%
%TA.AperFunction,Conductor*%
%ADD15C,0.500000*%
%TD*%
%TA.AperFunction,Conductor*%
%ADD16C,0.400000*%
%TD*%
%TA.AperFunction,Conductor*%
%ADD17C,0.200000*%
%TD*%
G04 APERTURE END LIST*
D10*
%TO.P,TP1,1,1_1*%
%TO.N,+3V3*%
X92750000Y-107750000D03*
%TD*%
D11*
%TO.P,J1,2,Ext_2*%
%TO.N,GND*%
X140137500Y-95000000D03*
X140137500Y-103500000D03*
%TD*%
D10*
%TO.P,TP2,1,1_1*%
%TO.N,+7V*%
X108000000Y-106000000D03*
%TD*%
D12*
%TO.P,C37,1*%
%TO.N,Net-(C37-Pad1)*%
X82962500Y-99500000D03*
%TO.P,C37,2*%
%TO.N,GND*%
X85037500Y-99500000D03*
%TD*%
%TO.P,C36,1*%
%TO.N,VUSB*%
X82962500Y-96000000D03*
%TO.P,C36,2*%
%TO.N,GND*%
X85037500Y-96000000D03*
%TD*%
D13*
%TO.P,R16,1*%
%TO.N,Net-(C37-Pad1)*%
X80500000Y-98412500D03*
%TO.P,R16,2*%
%TO.N,VUSB*%
X80500000Y-96587500D03*
%TD*%
D14*
%TO.N,+3V3*%
X110750000Y-105000000D03*
X92500000Y-97687500D03*
X89750000Y-88000000D03*
X109950735Y-89700735D03*
X91550000Y-92100000D03*
X109550000Y-98900000D03*
X101869975Y-86130025D03*
X85317500Y-105217500D03*
X90250000Y-87250000D03*
X107550000Y-98699375D03*
X111542243Y-89756852D03*
X111974265Y-93474265D03*
X92000000Y-100000000D03*
X104250000Y-92250000D03*
X86146717Y-94967333D03*
X104067871Y-94642042D03*
X89250000Y-87250000D03*
X78750000Y-104500000D03*
%TO.N,GND*%
X111750000Y-83500000D03*
X109000000Y-86750000D03*
X106950000Y-102050000D03*
X133750000Y-105000000D03*
X117597000Y-99853000D03*
X126850000Y-101600000D03*
X123750000Y-83500000D03*
X88031250Y-97468750D03*
X118750000Y-93100000D03*
X129500000Y-108750000D03*
X100000000Y-83500000D03*
X94400000Y-102150000D03*
X83750000Y-93500000D03*
X133750000Y-87500000D03*
X100000000Y-108750000D03*
X106000000Y-102250000D03*
X106772835Y-90442914D03*
X133750000Y-93250000D03*
X105750000Y-108750000D03*
X82500000Y-90500000D03*
X80500000Y-107467500D03*
X90750000Y-101250000D03*
X85204000Y-84550000D03*
X124901283Y-105848717D03*
X120800000Y-99853000D03*
X110000000Y-86750000D03*
X129500000Y-83500000D03*
X96250000Y-87250000D03*
X95750000Y-105000000D03*
X90500000Y-86000000D03*
X100250000Y-94050000D03*
X117750000Y-83500000D03*
X105750000Y-83500000D03*
X109250000Y-103000000D03*
X86817500Y-108117500D03*
X91000000Y-92750000D03*
X86750000Y-92000000D03*
X107550000Y-94500000D03*
X117750000Y-109500000D03*
X100750000Y-92500000D03*
X83454000Y-87800000D03*
X118750000Y-96700000D03*
X111000000Y-86750000D03*
X95250000Y-87250000D03*
X102250000Y-88750000D03*
X93500000Y-100500000D03*
X112000000Y-86750000D03*
X119200000Y-104050000D03*
X79704000Y-84550000D03*
X104250000Y-85000000D03*
X84000000Y-90500000D03*
%TO.N,+7V*%
X124000000Y-108500000D03*
X82704000Y-84050000D03*
%TO.N,/CC_Resetn*%
X94000000Y-93750000D03*
X104000000Y-93500000D03*
X103500000Y-105250000D03*
%TO.N,/SPI_MOSI*%
X89000000Y-93500000D03*
X103500000Y-95750000D03*
%TO.N,/SPI_SCK*%
X92750000Y-95250000D03*
X104300000Y-96500000D03*
%TO.N,/SPI_MISO*%
X90750000Y-94250000D03*
X105000000Y-97500000D03*
%TO.N,/SPI_CSN*%
X104000000Y-99000000D03*
X92500000Y-96887497D03*
%TO.N,/uc_Reset*%
X83115000Y-104642500D03*
X92000000Y-98500000D03*
%TO.N,VUSB*%
X85052500Y-86398500D03*
X81288331Y-85270322D03*
X93550000Y-84100000D03*
%TO.N,Net-(C37-Pad1)*%
X79175000Y-98500000D03*
%TD*%
%TO.N,VUSB*%
D15*
X81288331Y-88461669D02*
X83351500Y-86398500D01*
D16*
X84250000Y-85500000D02*
X83351500Y-86398500D01*
X87750000Y-85500000D02*
X84250000Y-85500000D01*
D15*
X81288331Y-88500000D02*
X81288331Y-85270322D01*
X81288331Y-91788331D02*
X81288331Y-88500000D01*
X80500000Y-96587500D02*
X82375000Y-96587500D01*
D16*
X89150000Y-84100000D02*
X87750000Y-85500000D01*
D15*
X83351500Y-86398500D02*
X85052500Y-86398500D01*
X81288331Y-88500000D02*
X81288331Y-88461669D01*
D16*
X93550000Y-84100000D02*
X89150000Y-84100000D01*
D15*
X82962500Y-96000000D02*
X82962500Y-93462500D01*
X82375000Y-96587500D02*
X82962500Y-96000000D01*
X82962500Y-93462500D02*
X81288331Y-91788331D01*
%TO.N,Net-(C37-Pad1)*%
X79262500Y-98412500D02*
X81000000Y-98412500D01*
X79175000Y-98500000D02*
X79262500Y-98412500D01*
X81000000Y-98412500D02*
X81875000Y-98412500D01*
X81875000Y-98412500D02*
X82962500Y-99500000D01*
D17*
X80500000Y-98412500D02*
X81000000Y-98412500D01*
%TD*%
%TA.AperFunction,Conductor*%
%TO.N,GND*%
G36*
X140502992Y-82250681D02*
G01*
X140795309Y-82268362D01*
X140807164Y-82269802D01*
X141092280Y-82322051D01*
X141103882Y-82324911D01*
X141380623Y-82411147D01*
X141391786Y-82415380D01*
X141652200Y-82532583D01*
X141656118Y-82534347D01*
X141666690Y-82539895D01*
X141914770Y-82689864D01*
X141924583Y-82696638D01*
X142152755Y-82875400D01*
X142161704Y-82883327D01*
X142366672Y-83088295D01*
X142374599Y-83097244D01*
X142553356Y-83325409D01*
X142560138Y-83335233D01*
X142710100Y-83583303D01*
X142715652Y-83593881D01*
X142834616Y-83858206D01*
X142838855Y-83869384D01*
X142925087Y-84146114D01*
X142927948Y-84157722D01*
X142980196Y-84442828D01*
X142981637Y-84454695D01*
X142999319Y-84747006D01*
X142999500Y-84752984D01*
X142999500Y-93693865D01*
X142980593Y-93752056D01*
X142931093Y-93788020D01*
X142869907Y-93788020D01*
X142865904Y-93786623D01*
X142784881Y-93756403D01*
X142784870Y-93756401D01*
X142725324Y-93750000D01*
X140387501Y-93750000D01*
X140387500Y-93750001D01*
X140387500Y-96249999D01*
X140387501Y-96250000D01*
X142725324Y-96250000D01*
X142784870Y-96243598D01*
X142784877Y-96243596D01*
X142865903Y-96213376D01*
X142927032Y-96210756D01*
X142978027Y-96244566D01*
X142999409Y-96301894D01*
X142999500Y-96306134D01*
X142999500Y-102193865D01*
X142980593Y-102252056D01*
X142931093Y-102288020D01*
X142869907Y-102288020D01*
X142865904Y-102286623D01*
X142784881Y-102256403D01*
X142784870Y-102256401D01*
X142725324Y-102250000D01*
X140387501Y-102250000D01*
X140387500Y-102250001D01*
X140387500Y-104749999D01*
X140387501Y-104750000D01*
X142725324Y-104750000D01*
X142784870Y-104743598D01*
X142784877Y-104743596D01*
X142865903Y-104713376D01*
X142927032Y-104710756D01*
X142978027Y-104744566D01*
X142999409Y-104801894D01*
X142999500Y-104806134D01*
X142999500Y-107497015D01*
X142999319Y-107502993D01*
X142981637Y-107795304D01*
X142980196Y-107807171D01*
X142927948Y-108092277D01*
X142925087Y-108103885D01*
X142838855Y-108380615D01*
X142834616Y-108391793D01*
X142715652Y-108656118D01*
X142710096Y-108666703D01*
X142560142Y-108914758D01*
X142553356Y-108924590D01*
X142374599Y-109152755D01*
X142366672Y-109161704D01*
X142161704Y-109366672D01*
X142152755Y-109374599D01*
X141924590Y-109553356D01*
X141914758Y-109560142D01*
X141677212Y-109703744D01*
X141666703Y-109710097D01*
X141656118Y-109715652D01*
X141391793Y-109834616D01*
X141380615Y-109838855D01*
X141103885Y-109925087D01*
X141092277Y-109927948D01*
X140807171Y-109980196D01*
X140795304Y-109981637D01*
X140523993Y-109998048D01*
X140502991Y-109999319D01*
X140497015Y-109999500D01*
X79002985Y-109999500D01*
X78997008Y-109999319D01*
X78973564Y-109997900D01*
X78704695Y-109981637D01*
X78692828Y-109980196D01*
X78407722Y-109927948D01*
X78396114Y-109925087D01*
X78119384Y-109838855D01*
X78108206Y-109834616D01*
X77843881Y-109715652D01*
X77833303Y-109710100D01*
X77585233Y-109560138D01*
X77575413Y-109553359D01*
X77347244Y-109374599D01*
X77338295Y-109366672D01*
X77133327Y-109161704D01*
X77125400Y-109152755D01*
X77015896Y-109012984D01*
X76946638Y-108924583D01*
X76939864Y-108914770D01*
X76789895Y-108666690D01*
X76784347Y-108656118D01*
X76746702Y-108572474D01*
X76665380Y-108391786D01*
X76661147Y-108380623D01*
X76574911Y-108103882D01*
X76572051Y-108092277D01*
X76557752Y-108014250D01*
X76519802Y-107807164D01*
X76518362Y-107795303D01*
X76509795Y-107653670D01*
X76509669Y-107651579D01*
X91499500Y-107651579D01*
X91499500Y-107848420D01*
X91530289Y-108042821D01*
X91591116Y-108230025D01*
X91665539Y-108376091D01*
X91680476Y-108405405D01*
X91796172Y-108564646D01*
X91935354Y-108703828D01*
X92094595Y-108819524D01*
X92269975Y-108908884D01*
X92457174Y-108969709D01*
X92457175Y-108969709D01*
X92457178Y-108969710D01*
X92651580Y-109000500D01*
X92651583Y-109000500D01*
X92848420Y-109000500D01*
X93042821Y-108969710D01*
X93042822Y-108969709D01*
X93042826Y-108969709D01*
X93230025Y-108908884D01*
X93405405Y-108819524D01*
X93564646Y-108703828D01*
X93703828Y-108564646D01*
X93803453Y-108427525D01*
X123449500Y-108427525D01*
X123449500Y-108572474D01*
X123487017Y-108712489D01*
X123559487Y-108838010D01*
X123559489Y-108838012D01*
X123559491Y-108838015D01*
X123661985Y-108940509D01*
X123661987Y-108940510D01*
X123661989Y-108940512D01*
X123787511Y-109012982D01*
X123787512Y-109012982D01*
X123787515Y-109012984D01*
X123927525Y-109050500D01*
X123927526Y-109050500D01*
X124072474Y-109050500D01*
X124072475Y-109050500D01*
X124212485Y-109012984D01*
X124212487Y-109012982D01*
X124212489Y-109012982D01*
X124338010Y-108940512D01*
X124338010Y-108940511D01*
X124338015Y-108940509D01*
X124440509Y-108838015D01*
X124512984Y-108712485D01*
X124550500Y-108572475D01*
X124550500Y-108427525D01*
X124512984Y-108287515D01*
X124512982Y-108287512D01*
X124512982Y-108287510D01*
X124440512Y-108161989D01*
X124440510Y-108161987D01*
X124440509Y-108161985D01*
X124338015Y-108059491D01*
X124338012Y-108059489D01*
X124338010Y-108059487D01*
X124212488Y-107987017D01*
X124212489Y-107987017D01*
X124182896Y-107979087D01*
X124072475Y-107949500D01*
X123927525Y-107949500D01*
X123865790Y-107966041D01*
X123787510Y-107987017D01*
X123661989Y-108059487D01*
X123559487Y-108161989D01*
X123487017Y-108287510D01*
X123449500Y-108427525D01*
X93803453Y-108427525D01*
X93819524Y-108405405D01*
X93908884Y-108230025D01*
X93969709Y-108042826D01*
X93978548Y-107987017D01*
X94000500Y-107848420D01*
X94000500Y-107651579D01*
X93969710Y-107457178D01*
X93962214Y-107434108D01*
X93908884Y-107269975D01*
X93819524Y-107094595D01*
X93703828Y-106935354D01*
X93564646Y-106796172D01*
X93405405Y-106680476D01*
X93405404Y-106680475D01*
X93405402Y-106680474D01*
X93230025Y-106591116D01*
X93042821Y-106530289D01*
X92848420Y-106499500D01*
X92848417Y-106499500D01*
X92651583Y-106499500D01*
X92651580Y-106499500D01*
X92457178Y-106530289D01*
X92269974Y-106591116D01*
X92094597Y-106680474D01*
X91935355Y-106796171D01*
X91796171Y-106935355D01*
X91680474Y-107094597D01*
X91591116Y-107269974D01*
X91530289Y-107457178D01*
X91499500Y-107651579D01*
X76509669Y-107651579D01*
X76500681Y-107502992D01*
X76500500Y-107497015D01*
X76500500Y-105901579D01*
X106749500Y-105901579D01*
X106749500Y-106098420D01*
X106780289Y-106292821D01*
X106841116Y-106480025D01*
X106866726Y-106530289D01*
X106930476Y-106655405D01*
X107046172Y-106814646D01*
X107185354Y-106953828D01*
X107344595Y-107069524D01*
X107519975Y-107158884D01*
X107707174Y-107219709D01*
X107707175Y-107219709D01*
X107707178Y-107219710D01*
X107901580Y-107250500D01*
X107901583Y-107250500D01*
X108098420Y-107250500D01*
X108292821Y-107219710D01*
X108292822Y-107219709D01*
X108292826Y-107219709D01*
X108480025Y-107158884D01*
X108655405Y-107069524D01*
X108814646Y-106953828D01*
X108953828Y-106814646D01*
X109069524Y-106655405D01*
X109158884Y-106480025D01*
X109219709Y-106292826D01*
X109250500Y-106098417D01*
X109250500Y-105901583D01*
X109250500Y-105901579D01*
X109219710Y-105707178D01*
X109203734Y-105658009D01*
X109158884Y-105519975D01*
X109069524Y-105344595D01*
X108953828Y-105185354D01*
X108814646Y-105046172D01*
X108752648Y-105001127D01*
X108752647Y-105001126D01*
X108655410Y-104930479D01*
X108655404Y-104930475D01*
X108649614Y-104927525D01*
X110199500Y-104927525D01*
X110199500Y-105072475D01*
X110227648Y-105177525D01*
X110237017Y-105212489D01*
X110309487Y-105338010D01*
X110309489Y-105338012D01*
X110309491Y-105338015D01*
X110411985Y-105440509D01*
X110411987Y-105440510D01*
X110411989Y-105440512D01*
X110537511Y-105512982D01*
X110537512Y-105512982D01*
X110537515Y-105512984D01*
X110677525Y-105550500D01*
X110677526Y-105550500D01*
X110822474Y-105550500D01*
X110822475Y-105550500D01*
X110962485Y-105512984D01*
X110962487Y-105512982D01*
X110962489Y-105512982D01*
X111088010Y-105440512D01*
X111088010Y-105440511D01*
X111088015Y-105440509D01*
X111190509Y-105338015D01*
X111262984Y-105212485D01*
X111300500Y-105072475D01*
X111300500Y-104927525D01*
X111262984Y-104787515D01*
X111262982Y-104787512D01*
X111262982Y-104787510D01*
X111190512Y-104661989D01*
X111190510Y-104661987D01*
X111190509Y-104661985D01*
X111088015Y-104559491D01*
X111088012Y-104559489D01*
X111088010Y-104559487D01*
X110962488Y-104487017D01*
X110962489Y-104487017D01*
X110932896Y-104479087D01*
X110822475Y-104449500D01*
X110677525Y-104449500D01*
X110615790Y-104466041D01*
X110537510Y-104487017D01*
X110411989Y-104559487D01*
X110309487Y-104661989D01*
X110237017Y-104787510D01*
X110231127Y-104809491D01*
X110199500Y-104927525D01*
X108649614Y-104927525D01*
X108480025Y-104841116D01*
X108292821Y-104780289D01*
X108098420Y-104749500D01*
X108098417Y-104749500D01*
X107901583Y-104749500D01*
X107901580Y-104749500D01*
X107707178Y-104780289D01*
X107519974Y-104841116D01*
X107344597Y-104930474D01*
X107185355Y-105046171D01*
X107046171Y-105185355D01*
X106930474Y-105344597D01*
X106841116Y-105519974D01*
X106780289Y-105707178D01*
X106749500Y-105901579D01*
X76500500Y-105901579D01*
X76500500Y-104427525D01*
X78199500Y-104427525D01*
X78199500Y-104572475D01*
X78224828Y-104667000D01*
X78237017Y-104712489D01*
X78309487Y-104838010D01*
X78309489Y-104838012D01*
X78309491Y-104838015D01*
X78411985Y-104940509D01*
X78411987Y-104940510D01*
X78411989Y-104940512D01*
X78537511Y-105012982D01*
X78537512Y-105012982D01*
X78537515Y-105012984D01*
X78677525Y-105050500D01*
X78677526Y-105050500D01*
X78822474Y-105050500D01*
X78822475Y-105050500D01*
X78962485Y-105012984D01*
X78962487Y-105012982D01*
X78962489Y-105012982D01*
X79088010Y-104940512D01*
X79088010Y-104940511D01*
X79088015Y-104940509D01*
X79190509Y-104838015D01*
X79190512Y-104838010D01*
X79262982Y-104712489D01*
X79262982Y-104712487D01*
X79262984Y-104712485D01*
X79300500Y-104572475D01*
X79300500Y-104570025D01*
X82564500Y-104570025D01*
X82564500Y-104714974D01*
X82602017Y-104854989D01*
X82674487Y-104980510D01*
X82674489Y-104980512D01*
X82674491Y-104980515D01*
X82776985Y-105083009D01*
X82776987Y-105083010D01*
X82776989Y-105083012D01*
X82902511Y-105155482D01*
X82902512Y-105155482D01*
X82902515Y-105155484D01*
X83042525Y-105193000D01*
X83042526Y-105193000D01*
X83187474Y-105193000D01*
X83187475Y-105193000D01*
X83327485Y-105155484D01*
X83327487Y-105155482D01*
X83327489Y-105155482D01*
X83345601Y-105145025D01*
X84767000Y-105145025D01*
X84767000Y-105289975D01*
X84781636Y-105344595D01*
X84804517Y-105429989D01*
X84876987Y-105555510D01*
X84876989Y-105555512D01*
X84876991Y-105555515D01*
X84979485Y-105658009D01*
X84979487Y-105658010D01*
X84979489Y-105658012D01*
X85105011Y-105730482D01*
X85105012Y-105730482D01*
X85105015Y-105730484D01*
X85245025Y-105768000D01*
X85245026Y-105768000D01*
X85389974Y-105768000D01*
X85389975Y-105768000D01*
X85529985Y-105730484D01*
X85529987Y-105730482D01*
X85529989Y-105730482D01*
X85655510Y-105658012D01*
X85655510Y-105658011D01*
X85655515Y-105658009D01*
X85758009Y-105555515D01*
X85758012Y-105555510D01*
X85830482Y-105429989D01*
X85830482Y-105429987D01*
X85830484Y-105429985D01*
X85868000Y-105289975D01*
X85868000Y-105177525D01*
X102949500Y-105177525D01*
X102949500Y-105322474D01*
X102987017Y-105462489D01*
X103059487Y-105588010D01*
X103059489Y-105588012D01*
X103059491Y-105588015D01*
X103161985Y-105690509D01*
X103161987Y-105690510D01*
X103161989Y-105690512D01*
X103287511Y-105762982D01*
X103287512Y-105762982D01*
X103287515Y-105762984D01*
X103427525Y-105800500D01*
X103427526Y-105800500D01*
X103572473Y-105800500D01*
X103572475Y-105800500D01*
X103712485Y-105762984D01*
X103809144Y-105707178D01*
X103838010Y-105690512D01*
X103838010Y-105690511D01*
X103838015Y-105690509D01*
X103940509Y-105588015D01*
X103959276Y-105555510D01*
X104012982Y-105462489D01*
X104012982Y-105462487D01*
X104012984Y-105462485D01*
X104050500Y-105322475D01*
X104050500Y-105177525D01*
X104012984Y-105037515D01*
X104012982Y-105037512D01*
X104012982Y-105037510D01*
X103940512Y-104911989D01*
X103940510Y-104911987D01*
X103940509Y-104911985D01*
X103838015Y-104809491D01*
X103838012Y-104809489D01*
X103838010Y-104809487D01*
X103712488Y-104737017D01*
X103712489Y-104737017D01*
X103682896Y-104729087D01*
X103572475Y-104699500D01*
X103427525Y-104699500D01*
X103408802Y-104704517D01*
X103287510Y-104737017D01*
X103161989Y-104809487D01*
X103059487Y-104911989D01*
X102987017Y-105037510D01*
X102949500Y-105177525D01*
X85868000Y-105177525D01*
X85868000Y-105145025D01*
X85830484Y-105005015D01*
X85830482Y-105005012D01*
X85830482Y-105005010D01*
X85758012Y-104879489D01*
X85758010Y-104879487D01*
X85758009Y-104879485D01*
X85655515Y-104776991D01*
X85655512Y-104776989D01*
X85655510Y-104776987D01*
X85529988Y-104704517D01*
X85529989Y-104704517D01*
X85500396Y-104696587D01*
X85389975Y-104667000D01*
X85245025Y-104667000D01*
X85183290Y-104683541D01*
X85105010Y-104704517D01*
X84979489Y-104776987D01*
X84876987Y-104879489D01*
X84804517Y-105005010D01*
X84767000Y-105145025D01*
X83345601Y-105145025D01*
X83453010Y-105083012D01*
X83453010Y-105083011D01*
X83453015Y-105083009D01*
X83555509Y-104980515D01*
X83578607Y-104940509D01*
X83627982Y-104854989D01*
X83627982Y-104854987D01*
X83627984Y-104854985D01*
X83665500Y-104714975D01*
X83665500Y-104570025D01*
X83627984Y-104430015D01*
X83627982Y-104430012D01*
X83627982Y-104430010D01*
X83555512Y-104304489D01*
X83555510Y-104304487D01*
X83555509Y-104304485D01*
X83548848Y-104297824D01*
X137097499Y-104297824D01*
X137103901Y-104357370D01*
X137103903Y-104357381D01*
X137154146Y-104492088D01*
X137154147Y-104492090D01*
X137240307Y-104607184D01*
X137240315Y-104607192D01*
X137355409Y-104693352D01*
X137355411Y-104693353D01*
X137490118Y-104743596D01*
X137490129Y-104743598D01*
X137549676Y-104750000D01*
X139887499Y-104750000D01*
X139887500Y-104749999D01*
X139887500Y-103750001D01*
X139887499Y-103750000D01*
X137097501Y-103750000D01*
X137097500Y-103750001D01*
X137097500Y-104297824D01*
X137097499Y-104297824D01*
X83548848Y-104297824D01*
X83453015Y-104201991D01*
X83453012Y-104201989D01*
X83453010Y-104201987D01*
X83327488Y-104129517D01*
X83327489Y-104129517D01*
X83297896Y-104121587D01*
X83187475Y-104092000D01*
X83042525Y-104092000D01*
X82980790Y-104108541D01*
X82902510Y-104129517D01*
X82776989Y-104201987D01*
X82674487Y-104304489D01*
X82602017Y-104430010D01*
X82564500Y-104570025D01*
X79300500Y-104570025D01*
X79300500Y-104427525D01*
X79262984Y-104287515D01*
X79262982Y-104287512D01*
X79262982Y-104287510D01*
X79190512Y-104161989D01*
X79190510Y-104161987D01*
X79190509Y-104161985D01*
X79088015Y-104059491D01*
X79088012Y-104059489D01*
X79088010Y-104059487D01*
X78962488Y-103987017D01*
X78962489Y-103987017D01*
X78932896Y-103979087D01*
X78822475Y-103949500D01*
X78677525Y-103949500D01*
X78615790Y-103966041D01*
X78537510Y-103987017D01*
X78411989Y-104059487D01*
X78309487Y-104161989D01*
X78237017Y-104287510D01*
X78218298Y-104357370D01*
X78199500Y-104427525D01*
X76500500Y-104427525D01*
X76500500Y-102702175D01*
X137097500Y-102702175D01*
X137097500Y-103249999D01*
X137097501Y-103250000D01*
X139887499Y-103250000D01*
X139887500Y-103249999D01*
X139887500Y-102250001D01*
X139887499Y-102250000D01*
X137549676Y-102250000D01*
X137490129Y-102256401D01*
X137490118Y-102256403D01*
X137355411Y-102306646D01*
X137355409Y-102306647D01*
X137240315Y-102392807D01*
X137240307Y-102392815D01*
X137154147Y-102507909D01*
X137154146Y-102507911D01*
X137103903Y-102642618D01*
X137103901Y-102642629D01*
X137097500Y-102702175D01*
X76500500Y-102702175D01*
X76500500Y-100424234D01*
X80237500Y-100424234D01*
X80237500Y-100575766D01*
X80259898Y-100659356D01*
X80276720Y-100722139D01*
X80352481Y-100853360D01*
X80352483Y-100853362D01*
X80352485Y-100853365D01*
X80459635Y-100960515D01*
X80459637Y-100960516D01*
X80459639Y-100960518D01*
X80590861Y-101036279D01*
X80590859Y-101036279D01*
X80590863Y-101036280D01*
X80590865Y-101036281D01*
X80737234Y-101075500D01*
X80737236Y-101075500D01*
X80888764Y-101075500D01*
X80888766Y-101075500D01*
X81035135Y-101036281D01*
X81035137Y-101036279D01*
X81035139Y-101036279D01*
X81166360Y-100960518D01*
X81166360Y-100960517D01*
X81166365Y-100960515D01*
X81273515Y-100853365D01*
X81273518Y-100853360D01*
X81349279Y-100722139D01*
X81349279Y-100722137D01*
X81349281Y-100722135D01*
X81388500Y-100575766D01*
X81388500Y-100424234D01*
X81349281Y-100277865D01*
X81349279Y-100277862D01*
X81349279Y-100277860D01*
X81273518Y-100146639D01*
X81273516Y-100146637D01*
X81273515Y-100146635D01*
X81166365Y-100039485D01*
X81166362Y-100039483D01*
X81166360Y-100039481D01*
X81035138Y-99963720D01*
X81035140Y-99963720D01*
X80978347Y-99948503D01*
X80888766Y-99924500D01*
X80737234Y-99924500D01*
X80647652Y-99948503D01*
X80590860Y-99963720D01*
X80459639Y-100039481D01*
X80352481Y-100146639D01*
X80276720Y-100277860D01*
X80276719Y-100277865D01*
X80237500Y-100424234D01*
X76500500Y-100424234D01*
X76500500Y-98427525D01*
X78624500Y-98427525D01*
X78624500Y-98572475D01*
X78649949Y-98667450D01*
X78662017Y-98712489D01*
X78734487Y-98838010D01*
X78734489Y-98838012D01*
X78734491Y-98838015D01*
X78836985Y-98940509D01*
X78836987Y-98940510D01*
X78836989Y-98940512D01*
X78962511Y-99012982D01*
X78962512Y-99012982D01*
X78962515Y-99012984D01*
X79102525Y-99050500D01*
X79102526Y-99050500D01*
X79247474Y-99050500D01*
X79247475Y-99050500D01*
X79387485Y-99012984D01*
X79387487Y-99012982D01*
X79387489Y-99012982D01*
X79513010Y-98940512D01*
X79513010Y-98940511D01*
X79513015Y-98940509D01*
X79513018Y-98940505D01*
X79518161Y-98936560D01*
X79519295Y-98938038D01*
X79566044Y-98914219D01*
X79581531Y-98913000D01*
X79790879Y-98913000D01*
X79849070Y-98931907D01*
X79870132Y-98952671D01*
X79913880Y-99011111D01*
X79913884Y-99011116D01*
X79913887Y-99011118D01*
X79913888Y-99011119D01*
X80026223Y-99095213D01*
X80157695Y-99144249D01*
X80157696Y-99144249D01*
X80157701Y-99144251D01*
X80215826Y-99150500D01*
X80215830Y-99150500D01*
X80784170Y-99150500D01*
X80784174Y-99150500D01*
X80842299Y-99144251D01*
X80887948Y-99127224D01*
X80973776Y-99095213D01*
X80973776Y-99095212D01*
X80973778Y-99095212D01*
X81086116Y-99011116D01*
X81129868Y-98952671D01*
X81179876Y-98917418D01*
X81209121Y-98913000D01*
X81626679Y-98913000D01*
X81684870Y-98931907D01*
X81696682Y-98941996D01*
X82095503Y-99340816D01*
X82123281Y-99395333D01*
X82124500Y-99410820D01*
X82124500Y-100022866D01*
X82124500Y-100022869D01*
X82124501Y-100022872D01*
X82126044Y-100037229D01*
X82130908Y-100082480D01*
X82130909Y-100082485D01*
X82181202Y-100217329D01*
X82238691Y-100294124D01*
X82267454Y-100332546D01*
X82267457Y-100332548D01*
X82267458Y-100332549D01*
X82382670Y-100418797D01*
X82517511Y-100469089D01*
X82517512Y-100469089D01*
X82517517Y-100469091D01*
X82577127Y-100475500D01*
X83347872Y-100475499D01*
X83407483Y-100469091D01*
X83484115Y-100440509D01*
X83542329Y-100418797D01*
X83542329Y-100418796D01*
X83542331Y-100418796D01*
X83657546Y-100332546D01*
X83743796Y-100217331D01*
X83775999Y-100130988D01*
X83814047Y-100083077D01*
X83872994Y-100066678D01*
X83930322Y-100088059D01*
X83962731Y-100134447D01*
X84015643Y-100294124D01*
X84107680Y-100443340D01*
X84231659Y-100567319D01*
X84380875Y-100659356D01*
X84547306Y-100714506D01*
X84650013Y-100724999D01*
X84787500Y-100724999D01*
X84787500Y-99750001D01*
X85287500Y-99750001D01*
X85287500Y-100724998D01*
X85287501Y-100724999D01*
X85424986Y-100724999D01*
X85527687Y-100714507D01*
X85527699Y-100714504D01*
X85694124Y-100659356D01*
X85843340Y-100567319D01*
X85967319Y-100443340D01*
X86059356Y-100294124D01*
X86114506Y-100127693D01*
X86125000Y-100024987D01*
X86125000Y-99927525D01*
X91449500Y-99927525D01*
X91449500Y-100072475D01*
X91479087Y-100182896D01*
X91487017Y-100212489D01*
X91559487Y-100338010D01*
X91559489Y-100338012D01*
X91559491Y-100338015D01*
X91661985Y-100440509D01*
X91661987Y-100440510D01*
X91661989Y-100440512D01*
X91787511Y-100512982D01*
X91787512Y-100512982D01*
X91787515Y-100512984D01*
X91927525Y-100550500D01*
X91927526Y-100550500D01*
X92072474Y-100550500D01*
X92072475Y-100550500D01*
X92212485Y-100512984D01*
X92212487Y-100512982D01*
X92212489Y-100512982D01*
X92338010Y-100440512D01*
X92338010Y-100440511D01*
X92338015Y-100440509D01*
X92440509Y-100338015D01*
X92443667Y-100332546D01*
X92512982Y-100212489D01*
X92512982Y-100212487D01*
X92512984Y-100212485D01*
X92550500Y-100072475D01*
X92550500Y-99927525D01*
X92512984Y-99787515D01*
X92512982Y-99787512D01*
X92512982Y-99787510D01*
X92440512Y-99661989D01*
X92440510Y-99661987D01*
X92440509Y-99661985D01*
X92338015Y-99559491D01*
X92338012Y-99559489D01*
X92338010Y-99559487D01*
X92212488Y-99487017D01*
X92212489Y-99487017D01*
X92182896Y-99479087D01*
X92072475Y-99449500D01*
X91927525Y-99449500D01*
X91865790Y-99466041D01*
X91787510Y-99487017D01*
X91661989Y-99559487D01*
X91559487Y-99661989D01*
X91487017Y-99787510D01*
X91487016Y-99787515D01*
X91449500Y-99927525D01*
X86125000Y-99927525D01*
X86125000Y-99750001D01*
X86124999Y-99750000D01*
X85287501Y-99750000D01*
X85287500Y-99750001D01*
X84787500Y-99750001D01*
X84787500Y-98275001D01*
X85287500Y-98275001D01*
X85287500Y-99249999D01*
X85287501Y-99250000D01*
X86124998Y-99250000D01*
X86124999Y-99249999D01*
X86124999Y-98975013D01*
X86114507Y-98872312D01*
X86114504Y-98872300D01*
X86059356Y-98705875D01*
X85967319Y-98556659D01*
X85843340Y-98432680D01*
X85834982Y-98427525D01*
X91449500Y-98427525D01*
X91449500Y-98572475D01*
X91474949Y-98667450D01*
X91487017Y-98712489D01*
X91559487Y-98838010D01*
X91559489Y-98838012D01*
X91559491Y-98838015D01*
X91661985Y-98940509D01*
X91661987Y-98940510D01*
X91661989Y-98940512D01*
X91787511Y-99012982D01*
X91787512Y-99012982D01*
X91787515Y-99012984D01*
X91927525Y-99050500D01*
X91927526Y-99050500D01*
X92072474Y-99050500D01*
X92072475Y-99050500D01*
X92212485Y-99012984D01*
X92212487Y-99012982D01*
X92212489Y-99012982D01*
X92338010Y-98940512D01*
X92338010Y-98940511D01*
X92338015Y-98940509D01*
X92350999Y-98927525D01*
X103449500Y-98927525D01*
X103449500Y-99072475D01*
X103467563Y-99139887D01*
X103487017Y-99212489D01*
X103559487Y-99338010D01*
X103559489Y-99338012D01*
X103559491Y-99338015D01*
X103661985Y-99440509D01*
X103661987Y-99440510D01*
X103661989Y-99440512D01*
X103787511Y-99512982D01*
X103787512Y-99512982D01*
X103787515Y-99512984D01*
X103927525Y-99550500D01*
X103927526Y-99550500D01*
X104072474Y-99550500D01*
X104072475Y-99550500D01*
X104212485Y-99512984D01*
X104212487Y-99512982D01*
X104212489Y-99512982D01*
X104338010Y-99440512D01*
X104338010Y-99440511D01*
X104338015Y-99440509D01*
X104440509Y-99338015D01*
X104512984Y-99212485D01*
X104550500Y-99072475D01*
X104550500Y-98927525D01*
X104512984Y-98787515D01*
X104512982Y-98787512D01*
X104512982Y-98787510D01*
X104445087Y-98669913D01*
X104445086Y-98669912D01*
X104440510Y-98661987D01*
X104440509Y-98661985D01*
X104405424Y-98626900D01*
X106999500Y-98626900D01*
X106999500Y-98771850D01*
X107014418Y-98827525D01*
X107037017Y-98911864D01*
X107109487Y-99037385D01*
X107109489Y-99037387D01*
X107109491Y-99037390D01*
X107211985Y-99139884D01*
X107211987Y-99139885D01*
X107211989Y-99139887D01*
X107337511Y-99212357D01*
X107337512Y-99212357D01*
X107337515Y-99212359D01*
X107477525Y-99249875D01*
X107477526Y-99249875D01*
X107622474Y-99249875D01*
X107622475Y-99249875D01*
X107762485Y-99212359D01*
X107762487Y-99212357D01*
X107762489Y-99212357D01*
X107888010Y-99139887D01*
X107888010Y-99139886D01*
X107888015Y-99139884D01*
X107990509Y-99037390D01*
X108062984Y-98911860D01*
X108085582Y-98827525D01*
X108999500Y-98827525D01*
X108999500Y-98972475D01*
X109016893Y-99037385D01*
X109037017Y-99112489D01*
X109109487Y-99238010D01*
X109109489Y-99238012D01*
X109109491Y-99238015D01*
X109211985Y-99340509D01*
X109211987Y-99340510D01*
X109211989Y-99340512D01*
X109337511Y-99412982D01*
X109337512Y-99412982D01*
X109337515Y-99412984D01*
X109477525Y-99450500D01*
X109477526Y-99450500D01*
X109622474Y-99450500D01*
X109622475Y-99450500D01*
X109762485Y-99412984D01*
X109762487Y-99412982D01*
X109762489Y-99412982D01*
X109888010Y-99340512D01*
X109888010Y-99340511D01*
X109888015Y-99340509D01*
X109990509Y-99238015D01*
X109990512Y-99238010D01*
X110062982Y-99112489D01*
X110062982Y-99112487D01*
X110062984Y-99112485D01*
X110100500Y-98972475D01*
X110100500Y-98827525D01*
X110062984Y-98687515D01*
X110062982Y-98687512D01*
X110062982Y-98687510D01*
X109990512Y-98561989D01*
X109990510Y-98561987D01*
X109990509Y-98561985D01*
X109888015Y-98459491D01*
X109888012Y-98459489D01*
X109888010Y-98459487D01*
X109762488Y-98387017D01*
X109762489Y-98387017D01*
X109732896Y-98379087D01*
X109622475Y-98349500D01*
X109477525Y-98349500D01*
X109415790Y-98366041D01*
X109337510Y-98387017D01*
X109211989Y-98459487D01*
X109109487Y-98561989D01*
X109037017Y-98687510D01*
X109014418Y-98771850D01*
X108999500Y-98827525D01*
X108085582Y-98827525D01*
X108100500Y-98771850D01*
X108100500Y-98626900D01*
X108062984Y-98486890D01*
X108062982Y-98486887D01*
X108062982Y-98486885D01*
X107990512Y-98361364D01*
X107990510Y-98361362D01*
X107990509Y-98361360D01*
X107888015Y-98258866D01*
X107888012Y-98258864D01*
X107888010Y-98258862D01*
X107762488Y-98186392D01*
X107762489Y-98186392D01*
X107732896Y-98178462D01*
X107622475Y-98148875D01*
X107477525Y-98148875D01*
X107415790Y-98165416D01*
X107337510Y-98186392D01*
X107211989Y-98258862D01*
X107109487Y-98361364D01*
X107037017Y-98486885D01*
X107014083Y-98572475D01*
X106999500Y-98626900D01*
X104405424Y-98626900D01*
X104338015Y-98559491D01*
X104338012Y-98559489D01*
X104338010Y-98559487D01*
X104212488Y-98487017D01*
X104212489Y-98487017D01*
X104109761Y-98459491D01*
X104072475Y-98449500D01*
X103927525Y-98449500D01*
X103890239Y-98459491D01*
X103787510Y-98487017D01*
X103661989Y-98559487D01*
X103559487Y-98661989D01*
X103487017Y-98787510D01*
X103465180Y-98869008D01*
X103449500Y-98927525D01*
X92350999Y-98927525D01*
X92440509Y-98838015D01*
X92440512Y-98838010D01*
X92512982Y-98712489D01*
X92512982Y-98712487D01*
X92512984Y-98712485D01*
X92550500Y-98572475D01*
X92550500Y-98427525D01*
X92530214Y-98351817D01*
X92533415Y-98290715D01*
X92571920Y-98243165D01*
X92600214Y-98230567D01*
X92712485Y-98200484D01*
X92712487Y-98200482D01*
X92712489Y-98200482D01*
X92838010Y-98128012D01*
X92838010Y-98128011D01*
X92838015Y-98128009D01*
X92940509Y-98025515D01*
X92962736Y-97987017D01*
X93012982Y-97899989D01*
X93012982Y-97899987D01*
X93012984Y-97899985D01*
X93050500Y-97759975D01*
X93050500Y-97615025D01*
X93012984Y-97475015D01*
X93012982Y-97475012D01*
X93012982Y-97475010D01*
X92940513Y-97349492D01*
X92940509Y-97349485D01*
X92940503Y-97349479D01*
X92939193Y-97347771D01*
X92938673Y-97346305D01*
X92937265Y-97343865D01*
X92937717Y-97343603D01*
X92918765Y-97290096D01*
X92936139Y-97231430D01*
X92939197Y-97227220D01*
X92940501Y-97225519D01*
X92940509Y-97225512D01*
X92946863Y-97214507D01*
X93012982Y-97099986D01*
X93012982Y-97099984D01*
X93012984Y-97099982D01*
X93050500Y-96959972D01*
X93050500Y-96815022D01*
X93012984Y-96675012D01*
X93012982Y-96675009D01*
X93012982Y-96675007D01*
X92940512Y-96549486D01*
X92940510Y-96549484D01*
X92940509Y-96549482D01*
X92838015Y-96446988D01*
X92838012Y-96446986D01*
X92838010Y-96446984D01*
X92712488Y-96374514D01*
X92712489Y-96374514D01*
X92682896Y-96366584D01*
X92572475Y-96336997D01*
X92427525Y-96336997D01*
X92365790Y-96353538D01*
X92287510Y-96374514D01*
X92161989Y-96446984D01*
X92059487Y-96549486D01*
X91987017Y-96675007D01*
X91955100Y-96794124D01*
X91949500Y-96815022D01*
X91949500Y-96959972D01*
X91956747Y-96987016D01*
X91987017Y-97099986D01*
X92059488Y-97225508D01*
X92060807Y-97227227D01*
X92061325Y-97228690D01*
X92062735Y-97231132D01*
X92062282Y-97231393D01*
X92081234Y-97284902D01*
X92063859Y-97343568D01*
X92060816Y-97347758D01*
X92059490Y-97349486D01*
X91987017Y-97475010D01*
X91949500Y-97615025D01*
X91949500Y-97759974D01*
X91969786Y-97835683D01*
X91966583Y-97896785D01*
X91928078Y-97944334D01*
X91899783Y-97956932D01*
X91787515Y-97987015D01*
X91787511Y-97987017D01*
X91661989Y-98059487D01*
X91559487Y-98161989D01*
X91487017Y-98287510D01*
X91472780Y-98340643D01*
X91449500Y-98427525D01*
X85834982Y-98427525D01*
X85694124Y-98340643D01*
X85527693Y-98285493D01*
X85424987Y-98275000D01*
X85287501Y-98275000D01*
X85287500Y-98275001D01*
X84787500Y-98275001D01*
X84787499Y-98275000D01*
X84650013Y-98275000D01*
X84650013Y-98275001D01*
X84547312Y-98285492D01*
X84547300Y-98285495D01*
X84380875Y-98340643D01*
X84231659Y-98432680D01*
X84107680Y-98556659D01*
X84015643Y-98705874D01*
X83962731Y-98865553D01*
X83926479Y-98914842D01*
X83868179Y-98933410D01*
X83810100Y-98914164D01*
X83775999Y-98869011D01*
X83743796Y-98782669D01*
X83735696Y-98771849D01*
X83657549Y-98667458D01*
X83657548Y-98667457D01*
X83657546Y-98667454D01*
X83650243Y-98661987D01*
X83542329Y-98581202D01*
X83407488Y-98530910D01*
X83407483Y-98530909D01*
X83407481Y-98530908D01*
X83407477Y-98530908D01*
X83376249Y-98527550D01*
X83347873Y-98524500D01*
X83347870Y-98524500D01*
X82735822Y-98524500D01*
X82677631Y-98505593D01*
X82665819Y-98495504D01*
X82182314Y-98012000D01*
X82182309Y-98011996D01*
X82068189Y-97946109D01*
X82068191Y-97946109D01*
X82018799Y-97932875D01*
X81940892Y-97912000D01*
X81940890Y-97912000D01*
X81209121Y-97912000D01*
X81150930Y-97893093D01*
X81129868Y-97872329D01*
X81086119Y-97813888D01*
X81086118Y-97813887D01*
X81086116Y-97813884D01*
X81014103Y-97759975D01*
X80973776Y-97729786D01*
X80842304Y-97680750D01*
X80842299Y-97680749D01*
X80842297Y-97680748D01*
X80842293Y-97680748D01*
X80816011Y-97677922D01*
X80784174Y-97674500D01*
X80215826Y-97674500D01*
X80187823Y-97677510D01*
X80157706Y-97680748D01*
X80157695Y-97680750D01*
X80026223Y-97729786D01*
X79913888Y-97813880D01*
X79913880Y-97813888D01*
X79870132Y-97872329D01*
X79820124Y-97907582D01*
X79790879Y-97912000D01*
X79328393Y-97912000D01*
X79196608Y-97912000D01*
X79069314Y-97946108D01*
X79069312Y-97946109D01*
X79040872Y-97962528D01*
X79016999Y-97972416D01*
X78962517Y-97987014D01*
X78962511Y-97987017D01*
X78836989Y-98059487D01*
X78734487Y-98161989D01*
X78662017Y-98287510D01*
X78647780Y-98340643D01*
X78624500Y-98427525D01*
X76500500Y-98427525D01*
X76500500Y-96884170D01*
X79774499Y-96884170D01*
X79780748Y-96942293D01*
X79780750Y-96942304D01*
X79829786Y-97073776D01*
X79907659Y-97177801D01*
X79913884Y-97186116D01*
X79913887Y-97186118D01*
X79913888Y-97186119D01*
X80026223Y-97270213D01*
X80157695Y-97319249D01*
X80157696Y-97319249D01*
X80157701Y-97319251D01*
X80215826Y-97325500D01*
X80215830Y-97325500D01*
X80784170Y-97325500D01*
X80784174Y-97325500D01*
X80842299Y-97319251D01*
X80927400Y-97287510D01*
X80973776Y-97270213D01*
X80973776Y-97270212D01*
X80973778Y-97270212D01*
X81086116Y-97186116D01*
X81113301Y-97149800D01*
X81129868Y-97127671D01*
X81179876Y-97092418D01*
X81209121Y-97088000D01*
X82440890Y-97088000D01*
X82440892Y-97088000D01*
X82568186Y-97053892D01*
X82568188Y-97053890D01*
X82568190Y-97053890D01*
X82680994Y-96988763D01*
X82730494Y-96975499D01*
X83347867Y-96975499D01*
X83347872Y-96975499D01*
X83407483Y-96969091D01*
X83524043Y-96925617D01*
X83542329Y-96918797D01*
X83542329Y-96918796D01*
X83542331Y-96918796D01*
X83657546Y-96832546D01*
X83743796Y-96717331D01*
X83775999Y-96630988D01*
X83814047Y-96583077D01*
X83872994Y-96566678D01*
X83930322Y-96588059D01*
X83962731Y-96634447D01*
X84015643Y-96794124D01*
X84107680Y-96943340D01*
X84231659Y-97067319D01*
X84380875Y-97159356D01*
X84547306Y-97214506D01*
X84650013Y-97224999D01*
X84787500Y-97224999D01*
X84787500Y-96250001D01*
X85287500Y-96250001D01*
X85287500Y-97224998D01*
X85287501Y-97224999D01*
X85424986Y-97224999D01*
X85527687Y-97214507D01*
X85527699Y-97214504D01*
X85694124Y-97159356D01*
X85843340Y-97067319D01*
X85967319Y-96943340D01*
X86059356Y-96794124D01*
X86114506Y-96627693D01*
X86125000Y-96524987D01*
X86125000Y-96250001D01*
X86124999Y-96250000D01*
X85287501Y-96250000D01*
X85287500Y-96250001D01*
X84787500Y-96250001D01*
X84787500Y-94775001D01*
X85287500Y-94775001D01*
X85287500Y-95749999D01*
X85287501Y-95750000D01*
X86124998Y-95750000D01*
X86124999Y-95749999D01*
X86124999Y-95616833D01*
X86143906Y-95558642D01*
X86193406Y-95522678D01*
X86212879Y-95519594D01*
X86212759Y-95518680D01*
X86219189Y-95517833D01*
X86219192Y-95517833D01*
X86359202Y-95480317D01*
X86359204Y-95480315D01*
X86359206Y-95480315D01*
X86484727Y-95407845D01*
X86484727Y-95407844D01*
X86484732Y-95407842D01*
X86587226Y-95305348D01*
X86659701Y-95179818D01*
X86660315Y-95177525D01*
X92199500Y-95177525D01*
X92199500Y-95322475D01*
X92224068Y-95414164D01*
X92237017Y-95462489D01*
X92309487Y-95588010D01*
X92309489Y-95588012D01*
X92309491Y-95588015D01*
X92411985Y-95690509D01*
X92411987Y-95690510D01*
X92411989Y-95690512D01*
X92537511Y-95762982D01*
X92537512Y-95762982D01*
X92537515Y-95762984D01*
X92677525Y-95800500D01*
X92677526Y-95800500D01*
X92822474Y-95800500D01*
X92822475Y-95800500D01*
X92962485Y-95762984D01*
X92962487Y-95762982D01*
X92962489Y-95762982D01*
X93088010Y-95690512D01*
X93088010Y-95690511D01*
X93088015Y-95690509D01*
X93100999Y-95677525D01*
X102949500Y-95677525D01*
X102949500Y-95822475D01*
X102958416Y-95855748D01*
X102987017Y-95962489D01*
X103059487Y-96088010D01*
X103059489Y-96088012D01*
X103059491Y-96088015D01*
X103161985Y-96190509D01*
X103161987Y-96190510D01*
X103161989Y-96190512D01*
X103287511Y-96262982D01*
X103287512Y-96262982D01*
X103287515Y-96262984D01*
X103427525Y-96300500D01*
X103427526Y-96300500D01*
X103572475Y-96300500D01*
X103634231Y-96283952D01*
X103695331Y-96287153D01*
X103742881Y-96325657D01*
X103758718Y-96384758D01*
X103755481Y-96405198D01*
X103749500Y-96427519D01*
X103749500Y-96572474D01*
X103787017Y-96712489D01*
X103859487Y-96838010D01*
X103859489Y-96838012D01*
X103859491Y-96838015D01*
X103961985Y-96940509D01*
X103961987Y-96940510D01*
X103961989Y-96940512D01*
X104087511Y-97012982D01*
X104087512Y-97012982D01*
X104087515Y-97012984D01*
X104227525Y-97050500D01*
X104227526Y-97050500D01*
X104372476Y-97050500D01*
X104372476Y-97050499D01*
X104438998Y-97032675D01*
X104500100Y-97035876D01*
X104547650Y-97074381D01*
X104563486Y-97133481D01*
X104550359Y-97177801D01*
X104487016Y-97287513D01*
X104470409Y-97349492D01*
X104449500Y-97427525D01*
X104449500Y-97572475D01*
X104476838Y-97674500D01*
X104487017Y-97712489D01*
X104559487Y-97838010D01*
X104559489Y-97838012D01*
X104559491Y-97838015D01*
X104661985Y-97940509D01*
X104661987Y-97940510D01*
X104661989Y-97940512D01*
X104787511Y-98012982D01*
X104787512Y-98012982D01*
X104787515Y-98012984D01*
X104927525Y-98050500D01*
X104927526Y-98050500D01*
X105072474Y-98050500D01*
X105072475Y-98050500D01*
X105212485Y-98012984D01*
X105212487Y-98012982D01*
X105212489Y-98012982D01*
X105338010Y-97940512D01*
X105338010Y-97940511D01*
X105338015Y-97940509D01*
X105440509Y-97838015D01*
X105440512Y-97838010D01*
X105512982Y-97712489D01*
X105512982Y-97712487D01*
X105512984Y-97712485D01*
X105550500Y-97572475D01*
X105550500Y-97427525D01*
X105512984Y-97287515D01*
X105512982Y-97287512D01*
X105512982Y-97287510D01*
X105440512Y-97161989D01*
X105440510Y-97161987D01*
X105440509Y-97161985D01*
X105338015Y-97059491D01*
X105338012Y-97059489D01*
X105338010Y-97059487D01*
X105212488Y-96987017D01*
X105212489Y-96987017D01*
X105169500Y-96975498D01*
X105072475Y-96949500D01*
X104927525Y-96949500D01*
X104860999Y-96967325D01*
X104799898Y-96964122D01*
X104752348Y-96925617D01*
X104736513Y-96866516D01*
X104749640Y-96822198D01*
X104812984Y-96712485D01*
X104850500Y-96572475D01*
X104850500Y-96427525D01*
X104812984Y-96287515D01*
X104812982Y-96287512D01*
X104812982Y-96287510D01*
X104740512Y-96161989D01*
X104740510Y-96161987D01*
X104740509Y-96161985D01*
X104638015Y-96059491D01*
X104638012Y-96059489D01*
X104638010Y-96059487D01*
X104512488Y-95987017D01*
X104512489Y-95987017D01*
X104434232Y-95966048D01*
X104372475Y-95949500D01*
X104227525Y-95949500D01*
X104165768Y-95966048D01*
X104104667Y-95962845D01*
X104057117Y-95924340D01*
X104041281Y-95865240D01*
X104044519Y-95844797D01*
X104050499Y-95822477D01*
X104050500Y-95822475D01*
X104050500Y-95797824D01*
X137097499Y-95797824D01*
X137103901Y-95857370D01*
X137103903Y-95857381D01*
X137154146Y-95992088D01*
X137154147Y-95992090D01*
X137240307Y-96107184D01*
X137240315Y-96107192D01*
X137355409Y-96193352D01*
X137355411Y-96193353D01*
X137490118Y-96243596D01*
X137490129Y-96243598D01*
X137549676Y-96250000D01*
X139887499Y-96250000D01*
X139887500Y-96249999D01*
X139887500Y-95250001D01*
X139887499Y-95250000D01*
X137097501Y-95250000D01*
X137097500Y-95250001D01*
X137097500Y-95797824D01*
X137097499Y-95797824D01*
X104050500Y-95797824D01*
X104050500Y-95677525D01*
X104034237Y-95616833D01*
X104012984Y-95537515D01*
X104012982Y-95537512D01*
X104012982Y-95537510D01*
X103940512Y-95411989D01*
X103940510Y-95411987D01*
X103940509Y-95411985D01*
X103881908Y-95353384D01*
X103854133Y-95298870D01*
X103863704Y-95238438D01*
X103906969Y-95195173D01*
X103967401Y-95185602D01*
X103977535Y-95187756D01*
X103995396Y-95192542D01*
X104140345Y-95192542D01*
X104140346Y-95192542D01*
X104280356Y-95155026D01*
X104335383Y-95123255D01*
X104335386Y-95123255D01*
X104405881Y-95082554D01*
X104405881Y-95082553D01*
X104405886Y-95082551D01*
X104508380Y-94980057D01*
X104580855Y-94854527D01*
X104618371Y-94714517D01*
X104618371Y-94569567D01*
X104580855Y-94429557D01*
X104580853Y-94429554D01*
X104580853Y-94429552D01*
X104508383Y-94304031D01*
X104508381Y-94304029D01*
X104508380Y-94304027D01*
X104406528Y-94202175D01*
X137097500Y-94202175D01*
X137097500Y-94749999D01*
X137097501Y-94750000D01*
X139887499Y-94750000D01*
X139887500Y-94749999D01*
X139887500Y-93750001D01*
X139887499Y-93750000D01*
X137549676Y-93750000D01*
X137490129Y-93756401D01*
X137490118Y-93756403D01*
X137355411Y-93806646D01*
X137355409Y-93806647D01*
X137240315Y-93892807D01*
X137240307Y-93892815D01*
X137154147Y-94007909D01*
X137154146Y-94007911D01*
X137103903Y-94142618D01*
X137103901Y-94142629D01*
X137097500Y-94202175D01*
X104406528Y-94202175D01*
X104405886Y-94201533D01*
X104405883Y-94201531D01*
X104405881Y-94201529D01*
X104294397Y-94137164D01*
X104253456Y-94091695D01*
X104247060Y-94030845D01*
X104277653Y-93977857D01*
X104294395Y-93965692D01*
X104338015Y-93940509D01*
X104440509Y-93838015D01*
X104455370Y-93812275D01*
X104512982Y-93712489D01*
X104512982Y-93712487D01*
X104512984Y-93712485D01*
X104550500Y-93572475D01*
X104550500Y-93427525D01*
X104543604Y-93401790D01*
X111423765Y-93401790D01*
X111423765Y-93546740D01*
X111430661Y-93572475D01*
X111461282Y-93686754D01*
X111533752Y-93812275D01*
X111533754Y-93812277D01*
X111533756Y-93812280D01*
X111636250Y-93914774D01*
X111636252Y-93914775D01*
X111636254Y-93914777D01*
X111761776Y-93987247D01*
X111761777Y-93987247D01*
X111761780Y-93987249D01*
X111901790Y-94024765D01*
X111901791Y-94024765D01*
X112046739Y-94024765D01*
X112046740Y-94024765D01*
X112186750Y-93987249D01*
X112186752Y-93987247D01*
X112186754Y-93987247D01*
X112312275Y-93914777D01*
X112312275Y-93914776D01*
X112312280Y-93914774D01*
X112414774Y-93812280D01*
X112447036Y-93756401D01*
X112487247Y-93686754D01*
X112487247Y-93686752D01*
X112487249Y-93686750D01*
X112524765Y-93546740D01*
X112524765Y-93401790D01*
X112487249Y-93261780D01*
X112487247Y-93261777D01*
X112487247Y-93261775D01*
X112414777Y-93136254D01*
X112414775Y-93136252D01*
X112414774Y-93136250D01*
X112312280Y-93033756D01*
X112312277Y-93033754D01*
X112312275Y-93033752D01*
X112186753Y-92961282D01*
X112186754Y-92961282D01*
X112140760Y-92948958D01*
X112046740Y-92923765D01*
X111901790Y-92923765D01*
X111842070Y-92939767D01*
X111761775Y-92961282D01*
X111636254Y-93033752D01*
X111533752Y-93136254D01*
X111461282Y-93261775D01*
X111454385Y-93287515D01*
X111423765Y-93401790D01*
X104543604Y-93401790D01*
X104512984Y-93287515D01*
X104483829Y-93237017D01*
X104440512Y-93161989D01*
X104440510Y-93161987D01*
X104440509Y-93161985D01*
X104338015Y-93059491D01*
X104338012Y-93059489D01*
X104338010Y-93059487D01*
X104209403Y-92985236D01*
X104168462Y-92939767D01*
X104162066Y-92878917D01*
X104192659Y-92825929D01*
X104248555Y-92801042D01*
X104258903Y-92800500D01*
X104322474Y-92800500D01*
X104322475Y-92800500D01*
X104462485Y-92762984D01*
X104462487Y-92762982D01*
X104462489Y-92762982D01*
X104588010Y-92690512D01*
X104588010Y-92690511D01*
X104588015Y-92690509D01*
X104690509Y-92588015D01*
X104762984Y-92462485D01*
X104800500Y-92322475D01*
X104800500Y-92177525D01*
X104762984Y-92037515D01*
X104762982Y-92037512D01*
X104762982Y-92037510D01*
X104690512Y-91911989D01*
X104690510Y-91911987D01*
X104690509Y-91911985D01*
X104588015Y-91809491D01*
X104588012Y-91809489D01*
X104588010Y-91809487D01*
X104462488Y-91737017D01*
X104462489Y-91737017D01*
X104432896Y-91729087D01*
X104322475Y-91699500D01*
X104177525Y-91699500D01*
X104115790Y-91716041D01*
X104037510Y-91737017D01*
X103911989Y-91809487D01*
X103809487Y-91911989D01*
X103737017Y-92037510D01*
X103699500Y-92177525D01*
X103699500Y-92322474D01*
X103737017Y-92462489D01*
X103809487Y-92588010D01*
X103809489Y-92588012D01*
X103809491Y-92588015D01*
X103911985Y-92690509D01*
X103911987Y-92690510D01*
X103911989Y-92690512D01*
X104040597Y-92764764D01*
X104081538Y-92810233D01*
X104087934Y-92871083D01*
X104057341Y-92924071D01*
X104001445Y-92948958D01*
X103991097Y-92949500D01*
X103927525Y-92949500D01*
X103865790Y-92966041D01*
X103787510Y-92987017D01*
X103661989Y-93059487D01*
X103559487Y-93161989D01*
X103487017Y-93287510D01*
X103449500Y-93427525D01*
X103449500Y-93572474D01*
X103487017Y-93712489D01*
X103559487Y-93838010D01*
X103559489Y-93838012D01*
X103559491Y-93838015D01*
X103661985Y-93940509D01*
X103773474Y-94004877D01*
X103814414Y-94050346D01*
X103820810Y-94111196D01*
X103790217Y-94164184D01*
X103773474Y-94176349D01*
X103729858Y-94201531D01*
X103627358Y-94304031D01*
X103554888Y-94429552D01*
X103546064Y-94462485D01*
X103517371Y-94569567D01*
X103517371Y-94714517D01*
X103536389Y-94785492D01*
X103554888Y-94854531D01*
X103627358Y-94980052D01*
X103627360Y-94980054D01*
X103627362Y-94980057D01*
X103685961Y-95038656D01*
X103713737Y-95093171D01*
X103704166Y-95153603D01*
X103660901Y-95196868D01*
X103600469Y-95206439D01*
X103590334Y-95204285D01*
X103572475Y-95199500D01*
X103427525Y-95199500D01*
X103401629Y-95206439D01*
X103287510Y-95237017D01*
X103161989Y-95309487D01*
X103059487Y-95411989D01*
X102987017Y-95537510D01*
X102949500Y-95677525D01*
X93100999Y-95677525D01*
X93190509Y-95588015D01*
X93219668Y-95537510D01*
X93262982Y-95462489D01*
X93262982Y-95462487D01*
X93262984Y-95462485D01*
X93300500Y-95322475D01*
X93300500Y-95177525D01*
X93262984Y-95037515D01*
X93262982Y-95037512D01*
X93262982Y-95037510D01*
X93190512Y-94911989D01*
X93190510Y-94911987D01*
X93190509Y-94911985D01*
X93088015Y-94809491D01*
X93088012Y-94809489D01*
X93088010Y-94809487D01*
X92962488Y-94737017D01*
X92962489Y-94737017D01*
X92906949Y-94722135D01*
X92822475Y-94699500D01*
X92677525Y-94699500D01*
X92615790Y-94716041D01*
X92537510Y-94737017D01*
X92411989Y-94809487D01*
X92309487Y-94911989D01*
X92237017Y-95037510D01*
X92208105Y-95145412D01*
X92199500Y-95177525D01*
X86660315Y-95177525D01*
X86697217Y-95039808D01*
X86697217Y-94894858D01*
X86659701Y-94754848D01*
X86659699Y-94754845D01*
X86659699Y-94754843D01*
X86587229Y-94629322D01*
X86587227Y-94629320D01*
X86587226Y-94629318D01*
X86484732Y-94526824D01*
X86484729Y-94526822D01*
X86484727Y-94526820D01*
X86359205Y-94454350D01*
X86359206Y-94454350D01*
X86329613Y-94446420D01*
X86219192Y-94416833D01*
X86074242Y-94416833D01*
X86046618Y-94424235D01*
X85934227Y-94454350D01*
X85808706Y-94526820D01*
X85706206Y-94629320D01*
X85642174Y-94740225D01*
X85596704Y-94781165D01*
X85535854Y-94787560D01*
X85530234Y-94786037D01*
X85527693Y-94785493D01*
X85424987Y-94775000D01*
X85287501Y-94775000D01*
X85287500Y-94775001D01*
X84787500Y-94775001D01*
X84787499Y-94775000D01*
X84650013Y-94775000D01*
X84650013Y-94775001D01*
X84547312Y-94785492D01*
X84547300Y-94785495D01*
X84380875Y-94840643D01*
X84231659Y-94932680D01*
X84107680Y-95056659D01*
X84015643Y-95205874D01*
X83962731Y-95365553D01*
X83926479Y-95414842D01*
X83868179Y-95433410D01*
X83810100Y-95414164D01*
X83775999Y-95369011D01*
X83743796Y-95282669D01*
X83678296Y-95195173D01*
X83657549Y-95167458D01*
X83657548Y-95167457D01*
X83657546Y-95167454D01*
X83657541Y-95167450D01*
X83542332Y-95081204D01*
X83542331Y-95081203D01*
X83527400Y-95075634D01*
X83479487Y-95037582D01*
X83463000Y-94982877D01*
X83463000Y-94177525D01*
X90199500Y-94177525D01*
X90199500Y-94322474D01*
X90237017Y-94462489D01*
X90309487Y-94588010D01*
X90309489Y-94588012D01*
X90309491Y-94588015D01*
X90411985Y-94690509D01*
X90411987Y-94690510D01*
X90411989Y-94690512D01*
X90537511Y-94762982D01*
X90537512Y-94762982D01*
X90537515Y-94762984D01*
X90677525Y-94800500D01*
X90677526Y-94800500D01*
X90822474Y-94800500D01*
X90822475Y-94800500D01*
X90962485Y-94762984D01*
X90962487Y-94762982D01*
X90962489Y-94762982D01*
X91088010Y-94690512D01*
X91088010Y-94690511D01*
X91088015Y-94690509D01*
X91190509Y-94588015D01*
X91262984Y-94462485D01*
X91300500Y-94322475D01*
X91300500Y-94177525D01*
X91262984Y-94037515D01*
X91262982Y-94037512D01*
X91262982Y-94037510D01*
X91190512Y-93911989D01*
X91190510Y-93911987D01*
X91190509Y-93911985D01*
X91088015Y-93809491D01*
X91088012Y-93809489D01*
X91088010Y-93809487D01*
X90996708Y-93756773D01*
X90996705Y-93756773D01*
X90962486Y-93737016D01*
X90864725Y-93710821D01*
X90822475Y-93699500D01*
X90677525Y-93699500D01*
X90635275Y-93710821D01*
X90537510Y-93737017D01*
X90411989Y-93809487D01*
X90309487Y-93911989D01*
X90237017Y-94037510D01*
X90199500Y-94177525D01*
X83463000Y-94177525D01*
X83463000Y-93427525D01*
X88449500Y-93427525D01*
X88449500Y-93572474D01*
X88487017Y-93712489D01*
X88559487Y-93838010D01*
X88559489Y-93838012D01*
X88559491Y-93838015D01*
X88661985Y-93940509D01*
X88661987Y-93940510D01*
X88661989Y-93940512D01*
X88787511Y-94012982D01*
X88787512Y-94012982D01*
X88787515Y-94012984D01*
X88927525Y-94050500D01*
X88927526Y-94050500D01*
X89072474Y-94050500D01*
X89072475Y-94050500D01*
X89212485Y-94012984D01*
X89212487Y-94012982D01*
X89212489Y-94012982D01*
X89338010Y-93940512D01*
X89338010Y-93940511D01*
X89338015Y-93940509D01*
X89440509Y-93838015D01*
X89455370Y-93812275D01*
X89512982Y-93712489D01*
X89512982Y-93712487D01*
X89512984Y-93712485D01*
X89522352Y-93677525D01*
X93449500Y-93677525D01*
X93449500Y-93822475D01*
X93474232Y-93914774D01*
X93487017Y-93962489D01*
X93559487Y-94088010D01*
X93559489Y-94088012D01*
X93559491Y-94088015D01*
X93661985Y-94190509D01*
X93661987Y-94190510D01*
X93661989Y-94190512D01*
X93787511Y-94262982D01*
X93787512Y-94262982D01*
X93787515Y-94262984D01*
X93927525Y-94300500D01*
X93927526Y-94300500D01*
X94072474Y-94300500D01*
X94072475Y-94300500D01*
X94212485Y-94262984D01*
X94212487Y-94262982D01*
X94212489Y-94262982D01*
X94338010Y-94190512D01*
X94338010Y-94190511D01*
X94338015Y-94190509D01*
X94440509Y-94088015D01*
X94440512Y-94088010D01*
X94512982Y-93962489D01*
X94512982Y-93962487D01*
X94512984Y-93962485D01*
X94550500Y-93822475D01*
X94550500Y-93677525D01*
X94512984Y-93537515D01*
X94512982Y-93537512D01*
X94512982Y-93537510D01*
X94440512Y-93411989D01*
X94440510Y-93411987D01*
X94440509Y-93411985D01*
X94338015Y-93309491D01*
X94338012Y-93309489D01*
X94338010Y-93309487D01*
X94212488Y-93237017D01*
X94212489Y-93237017D01*
X94182896Y-93229087D01*
X94072475Y-93199500D01*
X93927525Y-93199500D01*
X93865790Y-93216041D01*
X93787510Y-93237017D01*
X93661989Y-93309487D01*
X93559487Y-93411989D01*
X93487017Y-93537510D01*
X93477648Y-93572475D01*
X93449500Y-93677525D01*
X89522352Y-93677525D01*
X89550500Y-93572475D01*
X89550500Y-93427525D01*
X89512984Y-93287515D01*
X89512982Y-93287512D01*
X89512982Y-93287510D01*
X89440512Y-93161989D01*
X89440510Y-93161987D01*
X89440509Y-93161985D01*
X89338015Y-93059491D01*
X89338012Y-93059489D01*
X89338010Y-93059487D01*
X89212488Y-92987017D01*
X89212489Y-92987017D01*
X89182896Y-92979087D01*
X89072475Y-92949500D01*
X88927525Y-92949500D01*
X88865790Y-92966041D01*
X88787510Y-92987017D01*
X88661989Y-93059487D01*
X88559487Y-93161989D01*
X88487017Y-93287510D01*
X88449500Y-93427525D01*
X83463000Y-93427525D01*
X83463000Y-93396609D01*
X83439656Y-93309487D01*
X83428892Y-93269314D01*
X83428890Y-93269311D01*
X83428890Y-93269309D01*
X83363003Y-93155190D01*
X83362999Y-93155185D01*
X83269814Y-93061999D01*
X83269814Y-93062000D01*
X82235339Y-92027525D01*
X90999500Y-92027525D01*
X90999500Y-92172474D01*
X91037017Y-92312489D01*
X91109487Y-92438010D01*
X91109489Y-92438012D01*
X91109491Y-92438015D01*
X91211985Y-92540509D01*
X91211987Y-92540510D01*
X91211989Y-92540512D01*
X91337511Y-92612982D01*
X91337512Y-92612982D01*
X91337515Y-92612984D01*
X91477525Y-92650500D01*
X91477526Y-92650500D01*
X91622474Y-92650500D01*
X91622475Y-92650500D01*
X91762485Y-92612984D01*
X91762487Y-92612982D01*
X91762489Y-92612982D01*
X91888010Y-92540512D01*
X91888010Y-92540511D01*
X91888015Y-92540509D01*
X91990509Y-92438015D01*
X91990512Y-92438010D01*
X92062982Y-92312489D01*
X92062982Y-92312487D01*
X92062984Y-92312485D01*
X92100500Y-92172475D01*
X92100500Y-92027525D01*
X92062984Y-91887515D01*
X92062982Y-91887512D01*
X92062982Y-91887510D01*
X91990512Y-91761989D01*
X91990510Y-91761987D01*
X91990509Y-91761985D01*
X91888015Y-91659491D01*
X91888012Y-91659489D01*
X91888010Y-91659487D01*
X91762488Y-91587017D01*
X91762489Y-91587017D01*
X91732896Y-91579087D01*
X91622475Y-91549500D01*
X91477525Y-91549500D01*
X91415790Y-91566041D01*
X91337510Y-91587017D01*
X91211989Y-91659487D01*
X91109487Y-91761989D01*
X91037017Y-91887510D01*
X90999500Y-92027525D01*
X82235339Y-92027525D01*
X81817827Y-91610013D01*
X81790050Y-91555496D01*
X81788831Y-91540009D01*
X81788831Y-89628260D01*
X109400235Y-89628260D01*
X109400235Y-89773210D01*
X109415272Y-89829327D01*
X109437752Y-89913224D01*
X109510222Y-90038745D01*
X109510224Y-90038747D01*
X109510226Y-90038750D01*
X109612720Y-90141244D01*
X109612722Y-90141245D01*
X109612724Y-90141247D01*
X109738246Y-90213717D01*
X109738247Y-90213717D01*
X109738250Y-90213719D01*
X109878260Y-90251235D01*
X109878261Y-90251235D01*
X110023209Y-90251235D01*
X110023210Y-90251235D01*
X110163220Y-90213719D01*
X110163222Y-90213717D01*
X110163224Y-90213717D01*
X110288745Y-90141247D01*
X110288745Y-90141246D01*
X110288750Y-90141244D01*
X110391244Y-90038750D01*
X110391247Y-90038745D01*
X110463717Y-89913224D01*
X110463717Y-89913222D01*
X110463719Y-89913220D01*
X110501235Y-89773210D01*
X110501235Y-89684377D01*
X110991743Y-89684377D01*
X110991743Y-89829326D01*
X111029260Y-89969341D01*
X111101730Y-90094862D01*
X111101732Y-90094864D01*
X111101734Y-90094867D01*
X111204228Y-90197361D01*
X111204230Y-90197362D01*
X111204232Y-90197364D01*
X111329754Y-90269834D01*
X111329755Y-90269834D01*
X111329758Y-90269836D01*
X111469768Y-90307352D01*
X111469769Y-90307352D01*
X111614717Y-90307352D01*
X111614718Y-90307352D01*
X111754728Y-90269836D01*
X111754730Y-90269834D01*
X111754732Y-90269834D01*
X111880253Y-90197364D01*
X111880253Y-90197363D01*
X111880258Y-90197361D01*
X111982752Y-90094867D01*
X112055227Y-89969337D01*
X112092743Y-89829327D01*
X112092743Y-89684377D01*
X112055227Y-89544367D01*
X112055225Y-89544364D01*
X112055225Y-89544362D01*
X111982755Y-89418841D01*
X111982753Y-89418839D01*
X111982752Y-89418837D01*
X111880258Y-89316343D01*
X111880255Y-89316341D01*
X111880253Y-89316339D01*
X111754731Y-89243869D01*
X111754732Y-89243869D01*
X111725139Y-89235939D01*
X111614718Y-89206352D01*
X111469768Y-89206352D01*
X111408033Y-89222893D01*
X111329753Y-89243869D01*
X111204232Y-89316339D01*
X111101730Y-89418841D01*
X111029260Y-89544362D01*
X110991743Y-89684377D01*
X110501235Y-89684377D01*
X110501235Y-89628260D01*
X110463719Y-89488250D01*
X110463717Y-89488247D01*
X110463717Y-89488245D01*
X110391247Y-89362724D01*
X110391245Y-89362722D01*
X110391244Y-89362720D01*
X110288750Y-89260226D01*
X110288747Y-89260224D01*
X110288745Y-89260222D01*
X110163223Y-89187752D01*
X110163224Y-89187752D01*
X110133631Y-89179822D01*
X110023210Y-89150235D01*
X109878260Y-89150235D01*
X109816525Y-89166776D01*
X109738245Y-89187752D01*
X109612724Y-89260222D01*
X109510222Y-89362724D01*
X109437752Y-89488245D01*
X109422714Y-89544367D01*
X109400235Y-89628260D01*
X81788831Y-89628260D01*
X81788831Y-88709991D01*
X81807738Y-88651800D01*
X81817827Y-88639987D01*
X83280289Y-87177525D01*
X88699500Y-87177525D01*
X88699500Y-87322474D01*
X88737017Y-87462489D01*
X88809487Y-87588010D01*
X88809489Y-87588012D01*
X88809491Y-87588015D01*
X88911985Y-87690509D01*
X88911987Y-87690510D01*
X88911989Y-87690512D01*
X89037511Y-87762982D01*
X89037512Y-87762982D01*
X89037515Y-87762984D01*
X89134158Y-87788879D01*
X89185472Y-87822204D01*
X89207398Y-87879325D01*
X89204161Y-87910127D01*
X89199500Y-87927522D01*
X89199500Y-88072474D01*
X89237017Y-88212489D01*
X89309487Y-88338010D01*
X89309489Y-88338012D01*
X89309491Y-88338015D01*
X89411985Y-88440509D01*
X89411987Y-88440510D01*
X89411989Y-88440512D01*
X89537511Y-88512982D01*
X89537512Y-88512982D01*
X89537515Y-88512984D01*
X89677525Y-88550500D01*
X89677526Y-88550500D01*
X89822474Y-88550500D01*
X89822475Y-88550500D01*
X89962485Y-88512984D01*
X89962487Y-88512982D01*
X89962489Y-88512982D01*
X90088010Y-88440512D01*
X90088010Y-88440511D01*
X90088015Y-88440509D01*
X90190509Y-88338015D01*
X90262984Y-88212485D01*
X90300500Y-88072475D01*
X90300500Y-87927525D01*
X90295839Y-87910130D01*
X90299040Y-87849029D01*
X90337544Y-87801479D01*
X90365837Y-87788880D01*
X90462485Y-87762984D01*
X90462487Y-87762982D01*
X90462489Y-87762982D01*
X90588010Y-87690512D01*
X90588010Y-87690511D01*
X90588015Y-87690509D01*
X90690509Y-87588015D01*
X90762984Y-87462485D01*
X90800500Y-87322475D01*
X90800500Y-87177525D01*
X90762984Y-87037515D01*
X90762982Y-87037512D01*
X90762982Y-87037510D01*
X90690512Y-86911989D01*
X90690510Y-86911987D01*
X90690509Y-86911985D01*
X90588015Y-86809491D01*
X90588012Y-86809489D01*
X90588010Y-86809487D01*
X90462488Y-86737017D01*
X90462489Y-86737017D01*
X90432896Y-86729087D01*
X90322475Y-86699500D01*
X90177525Y-86699500D01*
X90115790Y-86716041D01*
X90037510Y-86737017D01*
X89911989Y-86809487D01*
X89911988Y-86809488D01*
X89911985Y-86809490D01*
X89911985Y-86809491D01*
X89820001Y-86901474D01*
X89765487Y-86929250D01*
X89705055Y-86919679D01*
X89679999Y-86901475D01*
X89588015Y-86809491D01*
X89588012Y-86809489D01*
X89588010Y-86809487D01*
X89462488Y-86737017D01*
X89462489Y-86737017D01*
X89432896Y-86729087D01*
X89322475Y-86699500D01*
X89177525Y-86699500D01*
X89115790Y-86716041D01*
X89037510Y-86737017D01*
X88911989Y-86809487D01*
X88809487Y-86911989D01*
X88737017Y-87037510D01*
X88699500Y-87177525D01*
X83280289Y-87177525D01*
X83529818Y-86927996D01*
X83584335Y-86900219D01*
X83599822Y-86899000D01*
X84791865Y-86899000D01*
X84833538Y-86910165D01*
X84834021Y-86909001D01*
X84840013Y-86911483D01*
X84840015Y-86911484D01*
X84980025Y-86949000D01*
X84980026Y-86949000D01*
X85124974Y-86949000D01*
X85124975Y-86949000D01*
X85264985Y-86911484D01*
X85264987Y-86911482D01*
X85264989Y-86911482D01*
X85390510Y-86839012D01*
X85390510Y-86839011D01*
X85390515Y-86839009D01*
X85493009Y-86736515D01*
X85565484Y-86610985D01*
X85603000Y-86470975D01*
X85603000Y-86326025D01*
X85565484Y-86186015D01*
X85515240Y-86098990D01*
X85506437Y-86057550D01*
X101319475Y-86057550D01*
X101319475Y-86202499D01*
X101356992Y-86342514D01*
X101429462Y-86468035D01*
X101429464Y-86468037D01*
X101429466Y-86468040D01*
X101531960Y-86570534D01*
X101531962Y-86570535D01*
X101531964Y-86570537D01*
X101657486Y-86643007D01*
X101657487Y-86643007D01*
X101657490Y-86643009D01*
X101797500Y-86680525D01*
X101797501Y-86680525D01*
X101942449Y-86680525D01*
X101942450Y-86680525D01*
X102082460Y-86643009D01*
X102082462Y-86643007D01*
X102082464Y-86643007D01*
X102207985Y-86570537D01*
X102207985Y-86570536D01*
X102207990Y-86570534D01*
X102310484Y-86468040D01*
X102382959Y-86342510D01*
X102420475Y-86202500D01*
X102420475Y-86057550D01*
X102382959Y-85917540D01*
X102382957Y-85917537D01*
X102382957Y-85917535D01*
X102310487Y-85792014D01*
X102310485Y-85792012D01*
X102310484Y-85792010D01*
X102207990Y-85689516D01*
X102207987Y-85689514D01*
X102207985Y-85689512D01*
X102082463Y-85617042D01*
X102082464Y-85617042D01*
X102052871Y-85609112D01*
X101942450Y-85579525D01*
X101797500Y-85579525D01*
X101735765Y-85596066D01*
X101657485Y-85617042D01*
X101531964Y-85689512D01*
X101429462Y-85792014D01*
X101356992Y-85917535D01*
X101319475Y-86057550D01*
X85506437Y-86057550D01*
X85502526Y-86039140D01*
X85527418Y-85983247D01*
X85580410Y-85952661D01*
X85600982Y-85950500D01*
X87809309Y-85950500D01*
X87899669Y-85926287D01*
X87899672Y-85926287D01*
X87912903Y-85922741D01*
X87923887Y-85919799D01*
X88026614Y-85860489D01*
X89307607Y-84579496D01*
X89362124Y-84551719D01*
X89377611Y-84550500D01*
X93202764Y-84550500D01*
X93252262Y-84563763D01*
X93337515Y-84612984D01*
X93477525Y-84650500D01*
X93477526Y-84650500D01*
X93622474Y-84650500D01*
X93622475Y-84650500D01*
X93762485Y-84612984D01*
X93762487Y-84612982D01*
X93762489Y-84612982D01*
X93888010Y-84540512D01*
X93888010Y-84540511D01*
X93888015Y-84540509D01*
X93990509Y-84438015D01*
X94019377Y-84388015D01*
X94062982Y-84312489D01*
X94062982Y-84312487D01*
X94062984Y-84312485D01*
X94100500Y-84172475D01*
X94100500Y-84027525D01*
X94062984Y-83887515D01*
X94062982Y-83887512D01*
X94062982Y-83887510D01*
X93990512Y-83761989D01*
X93990510Y-83761987D01*
X93990509Y-83761985D01*
X93888015Y-83659491D01*
X93888012Y-83659489D01*
X93888010Y-83659487D01*
X93762488Y-83587017D01*
X93762489Y-83587017D01*
X93696350Y-83569295D01*
X93622475Y-83549500D01*
X93477525Y-83549500D01*
X93337515Y-83587016D01*
X93337514Y-83587016D01*
X93337512Y-83587017D01*
X93298594Y-83609487D01*
X93252262Y-83636236D01*
X93202764Y-83649500D01*
X89090691Y-83649500D01*
X89053419Y-83659487D01*
X89000325Y-83673713D01*
X89000324Y-83673712D01*
X88976112Y-83680201D01*
X88976109Y-83680202D01*
X88873390Y-83739507D01*
X87592393Y-85020504D01*
X87537876Y-85048281D01*
X87522389Y-85049500D01*
X84190691Y-85049500D01*
X84159577Y-85057837D01*
X84100325Y-85073713D01*
X84100324Y-85073712D01*
X84076112Y-85080201D01*
X84076109Y-85080202D01*
X83973390Y-85139507D01*
X83973385Y-85139511D01*
X83207770Y-85905124D01*
X83163399Y-85930744D01*
X83158319Y-85932105D01*
X83158310Y-85932109D01*
X83044190Y-85997996D01*
X81957835Y-87084351D01*
X81903318Y-87112128D01*
X81842886Y-87102557D01*
X81799621Y-87059292D01*
X81788831Y-87014347D01*
X81788831Y-85530956D01*
X81799997Y-85489285D01*
X81798831Y-85488802D01*
X81801308Y-85482818D01*
X81801315Y-85482807D01*
X81838831Y-85342797D01*
X81838831Y-85197847D01*
X81801315Y-85057837D01*
X81801313Y-85057834D01*
X81801313Y-85057832D01*
X81728843Y-84932311D01*
X81728841Y-84932309D01*
X81728840Y-84932307D01*
X81626346Y-84829813D01*
X81626343Y-84829811D01*
X81626341Y-84829809D01*
X81500819Y-84757339D01*
X81500820Y-84757339D01*
X81462257Y-84747006D01*
X81360806Y-84719822D01*
X81215856Y-84719822D01*
X81154121Y-84736363D01*
X81075841Y-84757339D01*
X80950320Y-84829809D01*
X80847818Y-84932311D01*
X80775348Y-85057832D01*
X80769354Y-85080202D01*
X80737831Y-85197847D01*
X80737831Y-85342797D01*
X80775347Y-85482807D01*
X80775349Y-85482812D01*
X80777831Y-85488802D01*
X80776664Y-85489285D01*
X80787831Y-85530956D01*
X80787831Y-88395777D01*
X80787831Y-88434108D01*
X80787831Y-91722439D01*
X80787831Y-91854223D01*
X80803308Y-91911985D01*
X80821940Y-91981521D01*
X80887827Y-92095640D01*
X80887829Y-92095642D01*
X80887831Y-92095645D01*
X82433005Y-93640819D01*
X82460781Y-93695334D01*
X82462000Y-93710821D01*
X82462000Y-94982877D01*
X82443093Y-95041068D01*
X82397600Y-95075634D01*
X82382668Y-95081203D01*
X82382667Y-95081204D01*
X82267458Y-95167450D01*
X82267450Y-95167458D01*
X82181202Y-95282670D01*
X82130910Y-95417511D01*
X82130909Y-95417517D01*
X82124500Y-95477127D01*
X82124500Y-95762984D01*
X82124501Y-95988000D01*
X82105594Y-96046191D01*
X82056094Y-96082155D01*
X82025501Y-96087000D01*
X81209121Y-96087000D01*
X81150930Y-96068093D01*
X81129868Y-96047329D01*
X81086119Y-95988888D01*
X81086118Y-95988887D01*
X81086116Y-95988884D01*
X81055611Y-95966048D01*
X80973776Y-95904786D01*
X80842304Y-95855750D01*
X80842299Y-95855749D01*
X80842297Y-95855748D01*
X80842293Y-95855748D01*
X80816011Y-95852922D01*
X80784174Y-95849500D01*
X80215826Y-95849500D01*
X80187823Y-95852510D01*
X80157706Y-95855748D01*
X80157695Y-95855750D01*
X80026223Y-95904786D01*
X79913888Y-95988880D01*
X79913880Y-95988888D01*
X79829786Y-96101223D01*
X79780750Y-96232695D01*
X79780748Y-96232706D01*
X79774500Y-96290829D01*
X79774500Y-96884170D01*
X79774499Y-96884170D01*
X76500500Y-96884170D01*
X76500500Y-94424234D01*
X80237500Y-94424234D01*
X80237500Y-94575766D01*
X80251849Y-94629318D01*
X80276720Y-94722139D01*
X80352481Y-94853360D01*
X80352483Y-94853362D01*
X80352485Y-94853365D01*
X80459635Y-94960515D01*
X80459637Y-94960516D01*
X80459639Y-94960518D01*
X80590861Y-95036279D01*
X80590859Y-95036279D01*
X80590863Y-95036280D01*
X80590865Y-95036281D01*
X80737234Y-95075500D01*
X80737236Y-95075500D01*
X80888764Y-95075500D01*
X80888766Y-95075500D01*
X81035135Y-95036281D01*
X81035137Y-95036279D01*
X81035139Y-95036279D01*
X81166360Y-94960518D01*
X81166360Y-94960517D01*
X81166365Y-94960515D01*
X81273515Y-94853365D01*
X81340689Y-94737017D01*
X81349279Y-94722139D01*
X81349279Y-94722137D01*
X81349281Y-94722135D01*
X81388500Y-94575766D01*
X81388500Y-94424234D01*
X81349281Y-94277865D01*
X81349279Y-94277862D01*
X81349279Y-94277860D01*
X81273518Y-94146639D01*
X81273516Y-94146637D01*
X81273515Y-94146635D01*
X81166365Y-94039485D01*
X81166362Y-94039483D01*
X81166360Y-94039481D01*
X81035138Y-93963720D01*
X81035140Y-93963720D01*
X80948524Y-93940512D01*
X80888766Y-93924500D01*
X80737234Y-93924500D01*
X80677476Y-93940512D01*
X80590860Y-93963720D01*
X80459639Y-94039481D01*
X80352481Y-94146639D01*
X80276720Y-94277860D01*
X80276719Y-94277865D01*
X80237500Y-94424234D01*
X76500500Y-94424234D01*
X76500500Y-84752984D01*
X76500681Y-84747007D01*
X76504486Y-84684108D01*
X76518362Y-84454688D01*
X76519801Y-84442837D01*
X76572052Y-84157715D01*
X76574912Y-84146114D01*
X76627446Y-83977525D01*
X82153500Y-83977525D01*
X82153500Y-84122474D01*
X82191017Y-84262489D01*
X82263487Y-84388010D01*
X82263489Y-84388012D01*
X82263491Y-84388015D01*
X82365985Y-84490509D01*
X82365987Y-84490510D01*
X82365989Y-84490512D01*
X82491511Y-84562982D01*
X82491512Y-84562982D01*
X82491515Y-84562984D01*
X82631525Y-84600500D01*
X82631526Y-84600500D01*
X82776474Y-84600500D01*
X82776475Y-84600500D01*
X82916485Y-84562984D01*
X82916487Y-84562982D01*
X82916489Y-84562982D01*
X83042010Y-84490512D01*
X83042010Y-84490511D01*
X83042015Y-84490509D01*
X83144509Y-84388015D01*
X83188114Y-84312489D01*
X83216982Y-84262489D01*
X83216982Y-84262487D01*
X83216984Y-84262485D01*
X83254500Y-84122475D01*
X83254500Y-83977525D01*
X83216984Y-83837515D01*
X83216982Y-83837512D01*
X83216982Y-83837510D01*
X83144512Y-83711989D01*
X83144510Y-83711987D01*
X83144509Y-83711985D01*
X83042015Y-83609491D01*
X83042012Y-83609489D01*
X83042010Y-83609487D01*
X82916488Y-83537017D01*
X82916489Y-83537017D01*
X82886896Y-83529087D01*
X82776475Y-83499500D01*
X82631525Y-83499500D01*
X82569790Y-83516041D01*
X82491510Y-83537017D01*
X82365989Y-83609487D01*
X82263487Y-83711989D01*
X82191017Y-83837510D01*
X82153500Y-83977525D01*
X76627446Y-83977525D01*
X76661148Y-83869370D01*
X76665378Y-83858218D01*
X76784350Y-83593875D01*
X76789891Y-83583315D01*
X76939868Y-83335221D01*
X76946632Y-83325424D01*
X77125407Y-83097235D01*
X77133319Y-83088303D01*
X77338303Y-82883319D01*
X77347235Y-82875407D01*
X77575424Y-82696632D01*
X77585221Y-82689868D01*
X77833315Y-82539891D01*
X77843875Y-82534350D01*
X78108218Y-82415378D01*
X78119370Y-82411148D01*
X78396121Y-82324910D01*
X78407715Y-82322052D01*
X78692837Y-82269801D01*
X78704688Y-82268362D01*
X78997008Y-82250681D01*
X79002985Y-82250500D01*
X79065892Y-82250500D01*
X140434108Y-82250500D01*
X140497015Y-82250500D01*
X140502992Y-82250681D01*
G37*
%TD.AperFunction*%
%TD*%
M02*
