M48
; DRILL file KiCad 10.0.3-2.fc44 date 2026-06-12T17:50:48
; FORMAT={-:-/ absolute / metric / decimal}
; #@! TF.CreationDate,2026-06-12T17:50:48+02:00
; #@! TF.GenerationSoftware,Kicad,Pcbnew,10.0.3-2.fc44
; #@! TF.FileFunction,Plated,1,4,PTH
FMAT,2
METRIC
; #@! TA.AperFunction,Plated,PTH,ViaDrill
T1C0.300
; #@! TA.AperFunction,Plated,PTH,ComponentDrill
T2C1.000
%
G90
G05
T1
X78.75Y-104.5
X79.175Y-98.5
X79.704Y-84.55
X80.5Y-107.468
X81.288Y-85.27
X82.5Y-90.5
X82.704Y-84.05
X83.115Y-104.642
X83.454Y-87.8
X83.75Y-93.5
X84.0Y-90.5
X85.052Y-86.398
X85.204Y-84.55
X85.317Y-105.218
X86.147Y-94.967
X86.75Y-92.0
X86.817Y-108.117
X88.031Y-97.469
X89.0Y-93.5
X89.25Y-87.25
X89.75Y-88.0
X90.25Y-87.25
X90.5Y-86.0
X90.75Y-94.25
X90.75Y-101.25
X91.0Y-92.75
X91.55Y-92.1
X92.0Y-98.5
X92.0Y-100.0
X92.5Y-96.887
X92.5Y-97.688
X92.75Y-95.25
X93.5Y-100.5
X93.55Y-84.1
X94.0Y-93.75
X94.4Y-102.15
X95.25Y-87.25
X95.75Y-105.0
X96.25Y-87.25
X100.0Y-83.5
X100.0Y-108.75
X100.25Y-94.05
X100.75Y-92.5
X101.87Y-86.13
X102.25Y-88.75
X103.5Y-95.75
X103.5Y-105.25
X104.0Y-93.5
X104.0Y-99.0
X104.068Y-94.642
X104.25Y-85.0
X104.25Y-92.25
X104.3Y-96.5
X105.0Y-97.5
X105.75Y-83.5
X105.75Y-108.75
X106.0Y-102.25
X106.773Y-90.443
X106.95Y-102.05
X107.55Y-94.5
X107.55Y-98.699
X109.0Y-86.75
X109.25Y-103.0
X109.55Y-98.9
X109.951Y-89.701
X110.0Y-86.75
X110.75Y-105.0
X111.0Y-86.75
X111.542Y-89.757
X111.75Y-83.5
X111.974Y-93.474
X112.0Y-86.75
X117.597Y-99.853
X117.75Y-83.5
X117.75Y-109.5
X118.75Y-93.1
X118.75Y-96.7
X119.2Y-104.05
X120.8Y-99.853
X123.75Y-83.5
X124.0Y-108.5
X124.901Y-105.849
X126.85Y-101.6
X129.5Y-83.5
X129.5Y-108.75
X133.75Y-87.5
X133.75Y-93.25
X133.75Y-105.0
T2
X92.75Y-107.75
X108.0Y-106.0
M30
